<?xml version="1.0" encoding="iso-8859-1"?>
<!-- Generator: Adobe Illustrator 19.0.0, SVG Export Plug-In . SVG Version: 6.00 Build 0)  -->
<svg version="1.1" id="Capa_1" xmlns="http://www.w3.org/2000/svg" xmlns:xlink="http://www.w3.org/1999/xlink" x="0px" y="0px"
	 viewBox="0 0 409.6 409.6" style="enable-background:new 0 0 409.6 409.6;" xml:space="preserve">
<path style="fill:#F2F2F2;" d="M51.2,268.984h307.2c8.468,0,15.36-6.892,15.36-15.36V48.64H35.84v204.984
	C35.84,262.093,42.732,268.984,51.2,268.984z"/>
<path style="fill:#1F4254;" d="M337.92,107.52c0-7.066-5.734-12.8-12.8-12.8c-7.076,0-12.8,5.734-12.8,12.8
	c0,1.408,0.282,2.739,0.701,4.009l-34.371,49.792c-1.5,0.046-2.923,0.343-4.25,0.86l-38.979-24.934
	c-0.522-6.595-5.975-11.807-12.698-11.807c-7.076,0-12.8,5.734-12.8,12.8c0,1.096,0.179,2.14,0.44,3.159l-28.227,35.282
	c-0.128,0-0.246-0.036-0.374-0.036c-2.248,0-4.337,0.63-6.175,1.649l-27.453-12.201c-1.316-5.683-6.38-9.933-12.457-9.933
	c-7.076,0-12.8,5.734-12.8,12.8c0,0.358,0.077,0.701,0.108,1.055l-36.27,32.451c-0.732-0.128-1.475-0.225-2.237-0.225
	c-7.076,0-12.8,5.734-12.8,12.8c0,7.076,5.724,12.8,12.8,12.8c7.066,0,12.8-5.724,12.8-12.8c0-0.445-0.087-0.865-0.128-1.3
	l36.024-32.23c0.809,0.164,1.644,0.251,2.504,0.251c2.248,0,4.337-0.63,6.175-1.654l27.453,12.201
	c1.306,5.683,6.364,9.928,12.452,9.928c7.066,0,12.8-5.724,12.8-12.8c0-1.096-0.179-2.14-0.44-3.159l28.221-35.282
	c0.128,0,0.251,0.036,0.379,0.036c1.572,0,3.057-0.323,4.444-0.84l39.194,25.073c0.609,6.508,6.016,11.607,12.682,11.607
	c7.066,0,12.8-5.724,12.8-12.8c0-1.362-0.271-2.647-0.666-3.876l34.473-49.94C332.467,119.982,337.92,114.412,337.92,107.52z"/>
<rect y="2.56" style="fill:#1BB7EA;" width="409.6" height="46.08"/>
<path style="fill:#DCE0E2;" d="M358.4,268.984c8.468,0,15.36-6.892,15.36-15.36v-116.5l-38.492-38.492l-0.425,0.563
	c1.915,2.248,3.077,5.151,3.077,8.325c0,6.907-5.463,12.529-12.298,12.79l-34.401,49.833c0.399,1.239,0.62,2.56,0.62,3.937
	c0,7.076-5.734,12.8-12.8,12.8c-6.687,0-12.165-5.115-12.749-11.648l-39.081-25.001c-1.398,0.522-2.908,0.809-4.49,0.809
	c-0.133,0-0.271,0-0.399-0.005l-28.165,35.205c0.266,1.024,0.404,2.094,0.404,3.2c0,7.076-5.734,12.8-12.8,12.8
	c-6.088,0-11.182-4.244-12.483-9.943l-27.356-12.16c-1.848,1.034-3.978,1.623-6.246,1.623c-0.86,0-1.7-0.087-2.514-0.246
	l-35.953,32.169c0.046,0.445,0.072,0.901,0.072,1.357c0,7.076-5.734,12.8-12.8,12.8c-3.523,0-6.717-1.423-9.032-3.722l-0.497,0.451
	l44.416,44.416H358.4z"/>
<path style="fill:#A4ABB1;" d="M215.04,339.533v-55.188h-20.48v55.188l-57.856,49.485c-4.301,3.676-4.803,10.138-1.126,14.433
	c3.676,4.296,10.132,4.803,14.433,1.126l44.544-38.098V396.8c0,5.652,4.588,10.24,10.24,10.24s10.24-4.588,10.24-10.24v-30.321
	l44.544,38.098c4.296,3.681,10.762,3.174,14.433-1.126c3.671-4.301,3.174-10.762-1.126-14.433L215.04,339.533z"/>
<path style="fill:#C5CED3;" d="M373.76,48.64v204.984c0,8.468-6.892,15.36-15.36,15.36H51.2c-8.468,0-15.36-6.892-15.36-15.36V48.64
	H20.48v204.984c0,16.896,13.824,30.72,30.72,30.72h307.2c16.896,0,30.72-13.824,30.72-30.72V48.64H373.76z"/>
<g>
</g>
<g>
</g>
<g>
</g>
<g>
</g>
<g>
</g>
<g>
</g>
<g>
</g>
<g>
</g>
<g>
</g>
<g>
</g>
<g>
</g>
<g>
</g>
<g>
</g>
<g>
</g>
<g>
</g>
</svg>
